<svg width="52" height="47" viewBox="0 0 52 47" fill="none" xmlns="http://www.w3.org/2000/svg">
<path fill-rule="evenodd" clip-rule="evenodd" d="M25.9602 5.875C20.6792 5.875 20.0181 5.89498 17.944 5.98075C15.8739 6.06652 14.4597 6.36497 13.223 6.8009C11.9267 7.2427 10.751 7.93595 9.77883 8.83365C8.79006 9.71388 8.02479 10.7789 7.53628 11.9544C7.05795 13.0754 6.72741 14.3585 6.63278 16.235C6.53945 18.1138 6.51611 18.7119 6.51611 23.5C6.51611 28.2881 6.53815 28.8862 6.63278 30.7662C6.72741 32.6427 7.05666 33.9246 7.53757 35.0455C8.02497 36.2205 8.78977 37.2863 9.78012 38.1675C10.7512 39.0638 11.9261 39.7574 13.223 40.2003C14.4597 40.635 15.8739 40.9335 17.944 41.0192C20.0181 41.105 20.6792 41.125 25.9602 41.125C31.2412 41.125 31.9023 41.105 33.9763 41.0192C36.0465 40.9335 37.4607 40.635 38.6973 40.1991C39.9936 39.7573 41.1693 39.064 42.1415 38.1663C43.1303 37.2861 43.8956 36.2211 44.3841 35.0455C44.8637 33.9246 45.1929 32.6427 45.2876 30.7662C45.3822 28.8862 45.4042 28.2869 45.4042 23.5C45.4042 18.713 45.3822 18.1138 45.2876 16.2338C45.1929 14.3573 44.8637 13.0754 44.3828 11.9544C43.8946 10.7784 43.1293 9.71293 42.1402 8.83247C41.1691 7.93621 39.9942 7.24253 38.6973 6.79972C37.4607 6.36615 36.0452 6.06652 33.975 5.98075C31.9023 5.89615 31.2425 5.875 25.9602 5.875ZM25.9602 9.05102C31.1517 9.05102 31.7675 9.06865 33.8182 9.15325C35.7133 9.23197 36.7425 9.5175 37.4283 9.76072C38.3357 10.0791 38.9838 10.4622 39.6643 11.0779C40.3449 11.6948 40.7662 12.2823 41.1175 13.1048C41.3845 13.7263 41.7008 14.6593 41.7876 16.3771C41.881 18.236 41.9004 18.7941 41.9004 23.5C41.9004 28.2059 41.881 28.764 41.7876 30.6228C41.7008 32.3407 41.3858 33.2736 41.1175 33.8952C40.8063 34.6608 40.3097 35.3534 39.6643 35.9221C39.0371 36.5072 38.2729 36.9573 37.4283 37.2393C36.7425 37.4813 35.7133 37.768 33.8182 37.8467C31.7675 37.9313 31.153 37.949 25.9602 37.949C20.7673 37.949 20.1529 37.9313 18.1022 37.8467C16.207 37.768 15.1778 37.4825 14.4921 37.2393C13.6475 36.9572 12.8834 36.5071 12.256 35.9221C11.6107 35.3533 11.1142 34.6608 10.8029 33.8952C10.5358 33.2736 10.2196 32.3407 10.1327 30.6228C10.0394 28.764 10.0199 28.2059 10.0199 23.5C10.0199 18.7941 10.0394 18.236 10.1327 16.3771C10.2196 14.6593 10.5346 13.7263 10.8029 13.1048C11.1542 12.2823 11.5768 11.6948 12.256 11.0779C12.8833 10.4928 13.6474 10.0427 14.4921 9.76072C15.1778 9.51867 16.207 9.23197 18.1022 9.15325C20.1529 9.06865 20.7686 9.05102 25.9602 9.05102V9.05102Z" fill="white"/>
<path fill-rule="evenodd" clip-rule="evenodd" d="M25.9603 29.3808C25.1083 29.3808 24.2647 29.2287 23.4775 28.9332C22.6904 28.6376 21.9752 28.2045 21.3727 27.6584C20.7703 27.1123 20.2924 26.464 19.9663 25.7505C19.6403 25.037 19.4725 24.2722 19.4725 23.5C19.4725 22.7277 19.6403 21.9629 19.9663 21.2494C20.2924 20.5359 20.7703 19.8876 21.3727 19.3415C21.9752 18.7955 22.6904 18.3623 23.4775 18.0667C24.2647 17.7712 25.1083 17.6191 25.9603 17.6191C27.681 17.6191 29.3312 18.2387 30.5479 19.3415C31.7646 20.4444 32.4481 21.9402 32.4481 23.5C32.4481 25.0597 31.7646 26.5555 30.5479 27.6584C29.3312 28.7612 27.681 29.3808 25.9603 29.3808V29.3808ZM25.9603 14.4407C23.3097 14.4407 20.7676 15.3952 18.8933 17.0941C17.019 18.793 15.9661 21.0973 15.9661 23.5C15.9661 25.9026 17.019 28.2069 18.8933 29.9058C20.7676 31.6047 23.3097 32.5592 25.9603 32.5592C28.6109 32.5592 31.153 31.6047 33.0273 29.9058C34.9016 28.2069 35.9545 25.9026 35.9545 23.5C35.9545 21.0973 34.9016 18.793 33.0273 17.0941C31.153 15.3952 28.6109 14.4407 25.9603 14.4407V14.4407ZM38.8621 14.2762C38.8621 14.8441 38.6132 15.3888 38.1701 15.7904C37.7271 16.192 37.1262 16.4176 36.4996 16.4176C35.8731 16.4176 35.2722 16.192 34.8291 15.7904C34.3861 15.3888 34.1372 14.8441 34.1372 14.2762C34.1372 13.7083 34.3861 13.1636 34.8291 12.762C35.2722 12.3604 35.8731 12.1348 36.4996 12.1348C37.1262 12.1348 37.7271 12.3604 38.1701 12.762C38.6132 13.1636 38.8621 13.7083 38.8621 14.2762" fill="white"/>
</svg>
