<svg width="174" height="31" viewBox="0 0 174 31" fill="none" xmlns="http://www.w3.org/2000/svg">
<path d="M0.0889491 0.273599H9.01069V12.0419C9.76213 11.3541 10.5836 10.8192 11.4752 10.4371C12.3794 10.0423 13.3729 9.84489 14.4554 9.84489C16.8371 9.84489 18.6584 10.5135 19.9193 11.8508C21.1802 13.1754 21.8106 15.1177 21.8106 17.6777V24.7654H24.7145V30H15.8692V19.015C15.8692 17.9069 15.5953 17.0345 15.0477 16.3977C14.5 15.7609 13.7932 15.4425 12.9271 15.4425C12.354 15.4425 11.7299 15.6017 11.0549 15.9201C10.3798 16.2385 9.69845 16.7034 9.01069 17.3147V24.7654H11.9146V30H0.0889491V24.7654H3.14565V5.5082H0.0889491V0.273599ZM32.1461 21.3457L32.2034 21.938C32.3435 22.5111 32.5791 23.0142 32.9103 23.4472C33.2541 23.8802 33.6553 24.2432 34.1138 24.5361C34.5723 24.8291 35.0818 25.052 35.6422 25.2048C36.2026 25.3449 36.7693 25.415 37.3425 25.415C37.9156 25.415 38.4569 25.3831 38.9663 25.3194C39.4885 25.243 39.9916 25.1475 40.4756 25.0329C40.9596 24.9055 41.4308 24.7654 41.8893 24.6126C42.3478 24.447 42.8127 24.2751 43.2839 24.0967L45.3854 28.0131C44.6594 28.4589 43.9908 28.841 43.3795 29.1594C42.7809 29.4651 42.1759 29.7198 41.5645 29.9236C40.9532 30.1274 40.3037 30.2738 39.6159 30.363C38.9281 30.4649 38.1258 30.5158 37.2087 30.5158C35.4893 30.5158 33.961 30.2356 32.6237 29.6752C31.2864 29.1021 30.1592 28.3316 29.2422 27.3636C28.3379 26.3956 27.6438 25.2621 27.1598 23.963C26.6886 22.6639 26.453 21.2884 26.453 19.8365C26.453 18.3845 26.7013 17.0218 27.1981 15.7481C27.7075 14.4745 28.4207 13.3665 29.3377 12.424C30.2548 11.4688 31.3501 10.7173 32.6237 10.1697C33.8973 9.622 35.311 9.34818 36.8649 9.34818C38.4187 9.34818 39.7942 9.60927 40.9914 10.1315C42.2014 10.6409 43.2203 11.3541 44.0481 12.2711C44.876 13.1754 45.5128 14.2453 45.9585 15.4807C46.4043 16.7034 46.6463 18.0216 46.6845 19.4353C46.7227 19.7537 46.7418 20.0721 46.7418 20.3905C46.7546 20.6962 46.7482 21.0146 46.7227 21.3457H32.1461ZM36.712 14.1243C35.9988 14.1243 35.3875 14.2134 34.878 14.3917C34.3813 14.5573 33.961 14.7929 33.6171 15.0986C33.2732 15.3915 32.9994 15.729 32.7956 16.1111C32.5919 16.4932 32.4326 16.8944 32.318 17.3147H40.5902C40.5011 16.8817 40.3737 16.4741 40.2081 16.092C40.0426 15.7099 39.8133 15.3724 39.5204 15.0795C39.2274 14.7866 38.8517 14.5573 38.3932 14.3917C37.9474 14.2134 37.387 14.1243 36.712 14.1243ZM67.6229 17.4102H62.2546V15.3661C61.7324 15.3661 61.2548 15.4043 60.8217 15.4807C60.3887 15.5444 60.0066 15.659 59.6755 15.8246C59.3571 15.9901 59.0832 16.2194 58.854 16.5123C58.6375 16.8052 58.4846 17.1682 58.3955 17.6013V24.7654H62.4265V30H49.512V24.7654H52.4731V15.4425H49.5502V10.2079H58.3573V11.6025C58.9177 11.1567 59.5481 10.8128 60.2486 10.5709C60.9491 10.3289 61.7133 10.2079 62.5411 10.2079C63.3817 10.2079 64.2478 10.2142 65.1393 10.227C66.0309 10.2397 66.8587 10.2461 67.6229 10.2461V17.4102ZM87.1476 18.6138C87.1476 17.5057 86.8546 16.6397 86.2688 16.0156C85.6829 15.3788 84.906 15.0604 83.938 15.0604C83.2757 15.0604 82.6071 15.2068 81.9321 15.4998C81.2571 15.7927 80.6011 16.3404 79.9643 17.1428V24.7654H83.1739V30H70.8706V24.7654H73.7745V15.4425H70.9089V10.2079H79.9261V11.9464C80.754 11.2968 81.6773 10.7874 82.6962 10.418C83.7279 10.0359 84.8105 9.84489 85.944 9.84489C88.3257 9.84489 90.1597 10.5135 91.446 11.8508C92.7324 13.1754 93.3756 15.1177 93.3756 17.6777V24.7654H96.1839V30H87.1476V18.6138ZM110.933 28.9302C110.487 29.2104 110.079 29.4523 109.71 29.6561C109.34 29.8472 108.971 30 108.602 30.1146C108.232 30.242 107.85 30.3311 107.456 30.3821C107.061 30.4458 106.628 30.4776 106.156 30.4776C104.972 30.4776 103.908 30.3184 102.966 30C102.036 29.6689 101.247 29.2231 100.597 28.6627C99.9602 28.0896 99.4699 27.4209 99.126 26.6567C98.7821 25.8798 98.6102 25.0392 98.6102 24.135C98.6102 23.2179 98.7821 22.371 99.126 21.5941C99.4826 20.8172 99.9921 20.1549 100.654 19.6072C101.317 19.0468 102.125 18.6138 103.081 18.3081C104.049 17.9897 105.15 17.8305 106.386 17.8305C107.29 17.8305 108.111 17.8815 108.85 17.9834C109.602 18.0725 110.296 18.1871 110.933 18.3272V17.7159C110.933 17.2192 110.837 16.7925 110.646 16.4359C110.455 16.0665 110.187 15.7672 109.844 15.538C109.5 15.296 109.086 15.1241 108.602 15.0222C108.118 14.9075 107.589 14.8502 107.016 14.8502C105.819 14.8502 104.762 14.9712 103.845 15.2132C102.941 15.4425 102.068 15.78 101.227 16.2257L99.3935 12.5195C100.693 11.628 102.049 10.9466 103.463 10.4753C104.889 10.0041 106.398 9.76847 107.99 9.76847C109.226 9.76847 110.366 9.90857 111.41 10.1888C112.467 10.4562 113.372 10.902 114.123 11.5261C114.874 12.1374 115.46 12.9398 115.881 13.9332C116.314 14.9267 116.53 16.1366 116.53 17.5631V24.7654H119.186V30H110.933V28.9302ZM106.577 25.969C107.481 25.969 108.302 25.8225 109.041 25.5296C109.78 25.2366 110.41 24.88 110.933 24.4597V21.938H106.347C106.055 21.938 105.768 21.9825 105.488 22.0717C105.208 22.1608 104.953 22.2882 104.724 22.4538C104.507 22.6193 104.329 22.8231 104.189 23.0651C104.061 23.3071 103.998 23.5873 103.998 23.9057C103.998 24.4916 104.208 24.9819 104.628 25.3767C105.061 25.7716 105.711 25.969 106.577 25.969ZM139.494 18.6138C139.494 17.5057 139.201 16.6397 138.615 16.0156C138.029 15.3788 137.252 15.0604 136.284 15.0604C135.622 15.0604 134.953 15.2068 134.278 15.4998C133.603 15.7927 132.947 16.3404 132.31 17.1428V24.7654H135.52V30H123.217V24.7654H126.12V15.4425H123.255V10.2079H132.272V11.9464C133.1 11.2968 134.023 10.7874 135.042 10.418C136.074 10.0359 137.156 9.84489 138.29 9.84489C140.672 9.84489 142.506 10.5135 143.792 11.8508C145.078 13.1754 145.722 15.1177 145.722 17.6777V24.7654H148.53V30H139.494V18.6138ZM151.109 10.2079H159.993V24.7654H162.744V30H151.109V24.7654H154.089V15.4425H151.109V10.2079ZM153.784 3.82701C153.784 3.35577 153.866 2.91637 154.032 2.50881C154.21 2.08851 154.452 1.72553 154.758 1.41986C155.064 1.11419 155.42 0.872203 155.828 0.693895C156.248 0.515588 156.7 0.426434 157.184 0.426434C157.643 0.426434 158.076 0.515588 158.483 0.693895C158.891 0.872203 159.247 1.11419 159.553 1.41986C159.859 1.72553 160.101 2.08851 160.279 2.50881C160.457 2.91637 160.547 3.35577 160.547 3.82701C160.547 4.29825 160.457 4.74402 160.279 5.16432C160.101 5.57188 159.859 5.92849 159.553 6.23416C159.247 6.53983 158.891 6.78182 158.483 6.96013C158.076 7.13844 157.643 7.22759 157.184 7.22759C156.7 7.22759 156.248 7.13844 155.828 6.96013C155.42 6.78182 155.064 6.53983 154.758 6.23416C154.452 5.92849 154.21 5.57188 154.032 5.16432C153.866 4.74402 153.784 4.29825 153.784 3.82701ZM166.01 26.9051C166.01 26.3956 166.1 25.918 166.278 25.4723C166.469 25.0265 166.73 24.6317 167.061 24.2878C167.405 23.9439 167.806 23.6765 168.265 23.4854C168.723 23.2816 169.214 23.1797 169.736 23.1797C170.232 23.1797 170.704 23.2816 171.149 23.4854C171.608 23.6765 172.003 23.9439 172.334 24.2878C172.678 24.6189 172.945 25.0138 173.136 25.4723C173.327 25.9308 173.423 26.4084 173.423 26.9051C173.423 27.4145 173.321 27.8985 173.117 28.357C172.926 28.8155 172.665 29.2104 172.334 29.5415C172.003 29.8726 171.614 30.1337 171.169 30.3248C170.723 30.5286 170.245 30.6304 169.736 30.6304C169.201 30.6304 168.704 30.5286 168.246 30.3248C167.8 30.1337 167.405 29.8726 167.061 29.5415C166.73 29.2104 166.469 28.8219 166.278 28.3761C166.1 27.9176 166.01 27.4273 166.01 26.9051Z" fill="white"/>
</svg>
