<svg width="53" height="47" viewBox="0 0 53 47" fill="none" xmlns="http://www.w3.org/2000/svg">
<path d="M43.5718 15.5102C43.5981 15.8555 43.5981 16.2008 43.5981 16.5492C43.5981 27.1671 34.6807 39.4128 18.3749 39.4128V39.4064C13.5581 39.4128 8.84134 38.1621 4.78638 35.804C5.48678 35.8804 6.19069 35.9186 6.89636 35.9201C10.8881 35.9233 14.7658 34.7093 17.9062 32.4737C14.1128 32.4084 10.7863 30.1665 9.62424 26.8934C10.9531 27.1257 12.3223 27.078 13.6265 26.755C9.49083 25.9976 6.51544 22.7039 6.51544 18.8787C6.51544 18.8437 6.51544 18.8103 6.51544 18.7769C7.74773 19.399 9.12747 19.7443 10.5388 19.7825C6.64358 17.4228 5.44289 12.7256 7.79512 9.05323C12.296 14.0734 18.9366 17.1252 26.0653 17.4482C25.3508 14.6573 26.3268 11.7328 28.6299 9.77084C32.2004 6.72853 37.8159 6.88446 41.1722 10.1193C43.1575 9.76448 45.0604 9.10414 46.8017 8.16854C46.14 10.0286 44.7549 11.6086 42.9048 12.6127C44.6619 12.4249 46.3787 11.9985 47.9954 11.3477C46.8052 12.9643 45.3061 14.3725 43.5718 15.5102Z" fill="white"/>
</svg>
